<svg width="24" height="24" viewBox="0 0 24 24" fill="none" xmlns="http://www.w3.org/2000/svg">
<g id="House">
<path id="Vector" d="M20.5153 10.1214L13.0153 3.04512C13.0116 3.04193 13.0082 3.03848 13.005 3.03481C12.7289 2.78369 12.369 2.64453 11.9958 2.64453C11.6225 2.64453 11.2627 2.78369 10.9866 3.03481L10.9763 3.04512L3.48469 10.1214C3.33187 10.2619 3.20989 10.4326 3.12646 10.6227C3.04303 10.8128 2.99997 11.0181 3 11.2257V19.8929C3 20.2908 3.15804 20.6723 3.43934 20.9536C3.72064 21.2349 4.10218 21.3929 4.5 21.3929H9C9.39782 21.3929 9.77936 21.2349 10.0607 20.9536C10.342 20.6723 10.5 20.2908 10.5 19.8929V15.3929H13.5V19.8929C13.5 20.2908 13.658 20.6723 13.9393 20.9536C14.2206 21.2349 14.6022 21.3929 15 21.3929H19.5C19.8978 21.3929 20.2794 21.2349 20.5607 20.9536C20.842 20.6723 21 20.2908 21 19.8929V11.2257C21 11.0181 20.957 10.8128 20.8735 10.6227C20.7901 10.4326 20.6681 10.2619 20.5153 10.1214ZM19.5 19.8929H15V15.3929C15 14.9951 14.842 14.6136 14.5607 14.3323C14.2794 14.051 13.8978 13.8929 13.5 13.8929H10.5C10.1022 13.8929 9.72064 14.051 9.43934 14.3323C9.15804 14.6136 9 14.9951 9 15.3929V19.8929H4.5V11.2257L4.51031 11.2164L12 4.14294L19.4906 11.2145L19.5009 11.2239L19.5 19.8929Z" fill="white"/>
</g>
</svg>
