<svg width="217" height="42" viewBox="0 0 217 42" fill="none" xmlns="http://www.w3.org/2000/svg">
<path d="M23.996 11.344V31H19.208V19.212L14.812 31H10.948L6.524 19.184V31H1.736V11.344H7.392L12.908 24.952L18.368 11.344H23.996ZM30.4071 13.752C29.5671 13.752 28.8765 13.5093 28.3351 13.024C27.8125 12.52 27.5511 11.904 27.5511 11.176C27.5511 10.4293 27.8125 9.81333 28.3351 9.328C28.8765 8.824 29.5671 8.572 30.4071 8.572C31.2285 8.572 31.9005 8.824 32.4231 9.328C32.9645 9.81333 33.2351 10.4293 33.2351 11.176C33.2351 11.904 32.9645 12.52 32.4231 13.024C31.9005 13.5093 31.2285 13.752 30.4071 13.752ZM32.7871 15.376V31H27.9991V15.376H32.7871ZM46.3369 15.208C48.1663 15.208 49.6223 15.8053 50.7049 17C51.8063 18.176 52.3569 19.8 52.3569 21.872V31H47.5969V22.516C47.5969 21.4707 47.3263 20.6587 46.7849 20.08C46.2436 19.5013 45.5156 19.212 44.6009 19.212C43.6863 19.212 42.9583 19.5013 42.4169 20.08C41.8756 20.6587 41.6049 21.4707 41.6049 22.516V31H36.8169V15.376H41.6049V17.448C42.0903 16.7573 42.7436 16.216 43.5649 15.824C44.3863 15.4133 45.3103 15.208 46.3369 15.208ZM55.2921 23.16C55.2921 21.5547 55.5908 20.1453 56.1881 18.932C56.8041 17.7187 57.6348 16.7853 58.6801 16.132C59.7255 15.4787 60.8921 15.152 62.1801 15.152C63.2068 15.152 64.1401 15.3667 64.9801 15.796C65.8388 16.2253 66.5108 16.804 66.9961 17.532V10.28H71.7841V31H66.9961V28.76C66.5481 29.5067 65.9041 30.104 65.0641 30.552C64.2428 31 63.2815 31.224 62.1801 31.224C60.8921 31.224 59.7255 30.8973 58.6801 30.244C57.6348 29.572 56.8041 28.6293 56.1881 27.416C55.5908 26.184 55.2921 24.7653 55.2921 23.16ZM66.9961 23.188C66.9961 21.9933 66.6601 21.0507 65.9881 20.36C65.3348 19.6693 64.5321 19.324 63.5801 19.324C62.6281 19.324 61.8161 19.6693 61.1441 20.36C60.4908 21.032 60.1641 21.9653 60.1641 23.16C60.1641 24.3547 60.4908 25.3067 61.1441 26.016C61.8161 26.7067 62.6281 27.052 63.5801 27.052C64.5321 27.052 65.3348 26.7067 65.9881 26.016C66.6601 25.3253 66.9961 24.3827 66.9961 23.188ZM92.832 11.344V31H88.044V22.908H80.596V31H75.808V11.344H80.596V19.044H88.044V11.344H92.832ZM111.577 22.936C111.577 23.384 111.549 23.8507 111.493 24.336H100.657C100.731 25.3067 101.039 26.0533 101.581 26.576C102.141 27.08 102.822 27.332 103.625 27.332C104.819 27.332 105.65 26.828 106.117 25.82H111.213C110.951 26.8467 110.475 27.7707 109.785 28.592C109.113 29.4133 108.263 30.0573 107.237 30.524C106.21 30.9907 105.062 31.224 103.793 31.224C102.262 31.224 100.899 30.8973 99.7045 30.244C98.5098 29.5907 97.5765 28.6573 96.9045 27.444C96.2325 26.2307 95.8965 24.812 95.8965 23.188C95.8965 21.564 96.2232 20.1453 96.8765 18.932C97.5485 17.7187 98.4818 16.7853 99.6765 16.132C100.871 15.4787 102.243 15.152 103.793 15.152C105.305 15.152 106.649 15.4693 107.825 16.104C109.001 16.7387 109.915 17.644 110.569 18.82C111.241 19.996 111.577 21.368 111.577 22.936ZM106.677 21.676C106.677 20.8547 106.397 20.2013 105.837 19.716C105.277 19.2307 104.577 18.988 103.737 18.988C102.934 18.988 102.253 19.2213 101.693 19.688C101.151 20.1547 100.815 20.8173 100.685 21.676H106.677ZM113.71 23.16C113.71 21.5547 114.009 20.1453 114.606 18.932C115.222 17.7187 116.053 16.7853 117.098 16.132C118.144 15.4787 119.31 15.152 120.598 15.152C121.7 15.152 122.661 15.376 123.482 15.824C124.322 16.272 124.966 16.86 125.414 17.588V15.376H130.202V31H125.414V28.788C124.948 29.516 124.294 30.104 123.454 30.552C122.633 31 121.672 31.224 120.57 31.224C119.301 31.224 118.144 30.8973 117.098 30.244C116.053 29.572 115.222 28.6293 114.606 27.416C114.009 26.184 113.71 24.7653 113.71 23.16ZM125.414 23.188C125.414 21.9933 125.078 21.0507 124.406 20.36C123.753 19.6693 122.95 19.324 121.998 19.324C121.046 19.324 120.234 19.6693 119.562 20.36C118.909 21.032 118.582 21.9653 118.582 23.16C118.582 24.3547 118.909 25.3067 119.562 26.016C120.234 26.7067 121.046 27.052 121.998 27.052C122.95 27.052 123.753 26.7067 124.406 26.016C125.078 25.3253 125.414 24.3827 125.414 23.188ZM139.014 10.28V31H134.226V10.28H139.014ZM151.752 26.94V31H149.316C147.58 31 146.227 30.58 145.256 29.74C144.285 28.8813 143.8 27.4907 143.8 25.568V19.352H141.896V15.376H143.8V11.568H148.588V15.376H151.724V19.352H148.588V25.624C148.588 26.0907 148.7 26.4267 148.924 26.632C149.148 26.8373 149.521 26.94 150.044 26.94H151.752ZM164.583 15.208C166.375 15.208 167.812 15.8053 168.895 17C169.978 18.176 170.519 19.8 170.519 21.872V31H165.759V22.516C165.759 21.4707 165.488 20.6587 164.947 20.08C164.406 19.5013 163.678 19.212 162.763 19.212C161.848 19.212 161.12 19.5013 160.579 20.08C160.038 20.6587 159.767 21.4707 159.767 22.516V31H154.979V10.28H159.767V17.476C160.252 16.7853 160.915 16.2347 161.755 15.824C162.595 15.4133 163.538 15.208 164.583 15.208ZM190.366 15.376L180.566 38.42H175.414L178.998 30.468L172.642 15.376H177.99L181.602 25.148L185.186 15.376H190.366Z" fill="#002B5B"/>
<circle cx="194.5" cy="29.5" r="4.5" fill="#159895"/>
</svg>
